# xmcd CD database file
#
# Track frame offsets:
#	150
#	8689
#	17158
#	33850
#	46599
#	60609
#	74764
#	85173
#	100950
#	110660
#	128110
#	142701
#
# Disc length: 2069 seconds
#
# Revision: 2
# Processed by: cddbd v1.5.2PL0 Copyright (c) Steve Scherf et al.
# Submitted via: CDex 1.70beta2
#
DISCID=9508130c
DTITLE=Rocky Roberts - I Grandi Successi Originali cd1
DYEAR=2002
DGENRE=Pop
TTITLE0=Stasera mi butto
TTITLE1=Per conquistare te
TTITLE2=Se l'amore c'e'
TTITLE3=Se una sera
TTITLE4=Le belle donne
TTITLE5=Ma non ti lascio (Till i can't take it anymore)
TTITLE6=Piccola donna
TTITLE7=Nel blu dipinto di blu (Volare)
TTITLE8=Io non ti  credero'
TTITLE9=L'amore mio per te
TTITLE10=I can't stop loving you
TTITLE11=Gira gira (Reach out i'll be there)
EXTD=YEAR: 2002
EXTT0=
EXTT1=
EXTT2=
EXTT3=
EXTT4=
EXTT5=
EXTT6=
EXTT7=
EXTT8=
EXTT9=
EXTT10=
EXTT11=
PLAYORDER=
